<svg width="40" height="40" fill="none" xmlns="http://www.w3.org/2000/svg"><path d="M27.309 18.828v7.602c-.283.373-.725.784-1.327 1.23-.592.438-1.38.816-2.365 1.135-.984.319-2.21.478-3.678.478-1.248 0-2.392-.21-3.431-.628a7.517 7.517 0 0 1-2.693-1.873c-.748-.82-1.327-1.819-1.737-2.995-.41-1.185-.615-2.534-.615-4.047v-1.38c0-1.504.187-2.844.56-4.02.383-1.185.93-2.187 1.641-3.008a6.858 6.858 0 0 1 2.57-1.86c1.012-.427 2.156-.642 3.432-.642 1.631 0 2.98.274 4.047.82 1.075.538 1.905 1.286 2.488 2.243.584.957.953 2.05 1.108 3.281h-3.364a5.293 5.293 0 0 0-.642-1.86 3.256 3.256 0 0 0-1.34-1.284c-.574-.32-1.322-.479-2.242-.479-.793 0-1.49.15-2.092.451-.602.301-1.103.743-1.504 1.326-.392.584-.688 1.295-.889 2.133-.2.839-.3 1.796-.3 2.871v1.409c0 1.093.114 2.064.341 2.912.237.847.575 1.563 1.012 2.146a4.382 4.382 0 0 0 1.627 1.326c.638.292 1.358.438 2.16.438.784 0 1.427-.064 1.928-.192.501-.136.898-.296 1.19-.478.3-.192.533-.374.697-.547v-3.951h-4.143v-2.557h7.56Z" fill="#48B774"/><circle cx="20" cy="20" r="17.5" stroke="#F9A779" stroke-width="5" fill="transparent"/></svg>